<svg xmlns="http://www.w3.org/2000/svg" width="47.798" height="43.273" viewBox="0 0 47.798 43.273">
  <g id="Group_356" data-name="Group 356" transform="translate(-4614.912 -4124)">
    <path id="Path_349" data-name="Path 349" d="M14.226,24.91c.128-.112,1.462.577,1.6.638a31.488,31.488,0,0,1,3.924,2.066,23.864,23.864,0,0,1,7.963,8.005c1.608,2.677,2.825,7.652,6.711,7.652,1.862,0,3.978.06,5.392-1.36,1.729-1.738,1.761-4.274,2.3-6.518A70.8,70.8,0,0,1,56.892,6.681q.652-.779,1.323-1.542A37.409,37.409,0,0,1,61.1,2.232c.138-.125.376-.381.661-.673A.918.918,0,0,0,61.091,0C55.246.184,41.338,3.244,33.506,26.746c0,0-11.935-8.263-19.279-1.836Zm0,0" transform="translate(4600.686 4124.002)" fill="#131312"/>
    <g id="Group_355" data-name="Group 355" transform="translate(4640.618 4127.794)">
      <path id="Path_350" data-name="Path 350" d="M293.614,49.979a.907.907,0,0,1-.444-.116.918.918,0,0,1-.357-1.248C297.486,40.2,303.07,37.34,303.3,37.223a.919.919,0,1,1,.826,1.642c-.07.036-5.337,2.775-9.708,10.642a.919.919,0,0,1-.806.473Zm0,0" transform="translate(-289.942 -37.124)" fill="#424242"/>
      <path id="Path_351" data-name="Path 351" d="M266.658,175.555a.918.918,0,0,1-.821-1.328l.918-1.836a.918.918,0,0,1,1.642.822l-.918,1.836A.917.917,0,0,1,266.658,175.555Zm0,0" transform="translate(-265.741 -158.11)" fill="#424242"/>
    </g>
  </g>
</svg>
