<svg xmlns="http://www.w3.org/2000/svg" xmlns:xlink="http://www.w3.org/1999/xlink" width="144" height="144" viewBox="0 0 144 144">
  <defs>
    <clipPath id="clip-truck">
      <rect width="144" height="144"/>
    </clipPath>
  </defs>
  <g id="truck" clip-path="url(#clip-truck)">
    <g id="frontal-truck" transform="translate(-27.857 9)">
      <path id="Path_52" data-name="Path 52" d="M147.764,102.885V83.475a7.552,7.552,0,0,0-7.552-7.552h-1.974V5.059a1.888,1.888,0,0,0-.847-1.575L132.6.316a1.888,1.888,0,0,0-2.929,1.575V24.65L128.241,20.8a13.215,13.215,0,0,0-12.391-8.622h-33a13.215,13.215,0,0,0-12.422,8.7l-1.369,3.77V1.891A1.888,1.888,0,0,0,66.128.316L61.334,3.484a1.888,1.888,0,0,0-.847,1.575V75.923H58.513a7.552,7.552,0,0,0-7.552,7.552v19.41H47.745a1.888,1.888,0,0,0-1.888,1.888V115.21a1.888,1.888,0,0,0,1.888,1.888h8.145v5a3.776,3.776,0,0,0,3.776,3.776H69.67a3.776,3.776,0,0,0,3.776-3.776v-5H125.28v5a3.776,3.776,0,0,0,3.776,3.776h10.005a3.776,3.776,0,0,0,3.776-3.776v-5h8.145a1.888,1.888,0,0,0,1.888-1.888V104.773a1.888,1.888,0,0,0-1.888-1.888ZM71.558,35.166h55.61v18.6H71.558ZM70.265,97.6H63.816a3.568,3.568,0,0,1-3.568-3.568v-.09a3.568,3.568,0,0,1,3.568-3.568h6.449a3.568,3.568,0,0,1,3.568,3.568v.09A3.568,3.568,0,0,1,70.265,97.6ZM112.2,98.654H86.529a3.776,3.776,0,0,1-3.776-3.776V70.955a3.776,3.776,0,0,1,3.776-3.776H112.2a3.776,3.776,0,0,1,3.776,3.776V94.878A3.776,3.776,0,0,1,112.2,98.654ZM134.911,97.6h-6.449a3.568,3.568,0,0,1-3.568-3.568v-.09a3.568,3.568,0,0,1,3.568-3.568h6.449a3.568,3.568,0,0,1,3.568,3.568v.09A3.568,3.568,0,0,1,134.911,97.6ZM111.623,81H87.043a1.869,1.869,0,0,1-1.869-1.869V79.09a1.869,1.869,0,0,1,1.869-1.869h24.58a1.869,1.869,0,0,1,1.869,1.869v.038A1.869,1.869,0,0,1,111.623,81Zm0-7.552H87.043a1.869,1.869,0,0,1-1.869-1.869v-.038a1.869,1.869,0,0,1,1.869-1.869h24.58a1.869,1.869,0,0,1,1.869,1.869v.038A1.869,1.869,0,0,1,111.623,73.445Zm0,22.655H87.043a1.869,1.869,0,0,1-1.869-1.869v-.038a1.869,1.869,0,0,1,1.869-1.869h24.58a1.869,1.869,0,0,1,1.869,1.869v.038A1.869,1.869,0,0,1,111.623,96.1Zm0-7.552H87.043a1.869,1.869,0,0,1-1.869-1.869v-.038a1.869,1.869,0,0,1,1.869-1.869h24.58a1.869,1.869,0,0,1,1.869,1.869v.038A1.869,1.869,0,0,1,111.623,88.549Z" transform="translate(0 0)" fill="#5c5959"/>
    </g>
  </g>
</svg>
